<?xml version="1.0" standalone="no"?>
<!DOCTYPE svg PUBLIC "-//W3C//DTD SVG 20010904//EN"
 "http://www.w3.org/TR/2001/REC-SVG-20010904/DTD/svg10.dtd">
<svg version="1.0" xmlns="http://www.w3.org/2000/svg"
 width="1024.000000pt" height="1024.000000pt" viewBox="0 0 1024.000000 1024.000000"
 preserveAspectRatio="xMidYMid meet">
<metadata>
Created by potrace 1.11, written by Peter Selinger 2001-2013
</metadata>
<g transform="translate(0.000000,1024.000000) scale(0.100000,-0.100000)"
fill="#000000" stroke="none">
<path d="M0 5120 l0 -5120 5120 0 5120 0 0 5120 0 5120 -5120 0 -5120 0 0
-5120z m6655 4537 c272 -47 515 -123 730 -226 222 -107 400 -219 565 -357 106
-88 306 -292 396 -404 300 -375 491 -831 555 -1325 19 -147 17 -530 -5 -685
-77 -564 -311 -1053 -700 -1457 l-79 -83 96 -100 c384 -400 604 -864 683
-1440 22 -155 24 -538 5 -685 -64 -494 -255 -950 -555 -1325 -90 -112 -290
-316 -396 -404 -299 -250 -702 -451 -1075 -539 -277 -65 -133 -61 -2177 -64
l-1858 -3 0 760 0 760 1813 3 1812 2 85 23 c192 52 352 138 482 261 109 104
174 188 238 312 167 323 181 655 42 977 -71 166 -169 303 -291 411 -142 125
-236 179 -395 230 -200 64 -46 61 -2798 61 l-2508 0 0 755 0 755 2563 3 2562
2 80 22 c105 28 303 117 385 173 140 95 273 247 361 413 182 348 182 721 -1
1076 -64 124 -129 208 -238 312 -130 123 -290 209 -482 261 l-85 23 -1810 2
-1810 3 -413 413 c-227 226 -567 568 -754 760 l-341 347 2609 -3 c2425 -2
2616 -4 2709 -20z m-3475 -6827 l0 -50 -105 0 -105 0 0 -265 0 -265 -50 0 -50
0 0 315 0 315 155 0 155 0 0 -50z m660 0 l0 -50 -158 0 -158 0 -49 50 -49 50
207 0 207 0 0 -50z m763 16 c28 -14 61 -32 71 -40 19 -16 19 -17 -13 -50 l-34
-35 -37 25 c-76 50 -190 41 -260 -22 -129 -117 -69 -346 97 -371 36 -5 153
-70 153 -85 0 -12 -89 -21 -146 -15 -147 15 -274 159 -274 311 0 225 241 379
443 282z m767 -281 l0 -315 -50 0 -50 0 0 130 0 130 -165 0 -165 0 0 -130 0
-130 -50 0 -50 0 0 127 0 127 52 53 52 53 163 0 163 0 0 135 0 135 50 0 50 0
0 -315z m-1530 -5 l0 -50 -210 0 -210 0 0 50 0 50 210 0 210 0 0 -50z m0 -260
l0 -50 -207 0 -208 1 53 49 53 50 155 0 154 0 0 -50z"/>
</g>
</svg>
