<?xml version="1.0" encoding="UTF-8"?>
<svg id="Layer_1" data-name="Layer 1" xmlns="http://www.w3.org/2000/svg" xmlns:serif="http://www.serif.com/" version="1.1" viewBox="0 0 512 512">
  <defs>
    <style>
      .cls-1 {
        fill: #265787;
      }

      .cls-1, .cls-2 {
        stroke-width: 0px;
      }

      .cls-2 {
        fill: #ea7600;
      }
    </style>
  </defs>
  <path class="cls-1" d="M263.1,276.8c.9-16.3,8.9-30.6,20.9-40.8,11.8-10,27.7-16.1,45-16.1s33.2,6.1,45,16.1c12,10.2,20,24.5,20.9,40.8.9,16.7-5.8,32.3-17.6,43.8-12,11.7-29.1,19.1-48.3,19.1s-36.3-7.4-48.3-19.1c-11.8-11.5-18.5-27.1-17.6-43.8Z"/>
  <path class="cls-2" d="M158.1,309.7c.1,6.4,2.1,18.8,5.2,28.4,6.4,20.5,17.3,39.4,32.4,56.1,15.5,17.2,34.6,30.9,56.7,40.7,23.2,10.3,48.3,15.5,74.5,15.5,26.1,0,51.2-5.4,74.4-15.7,22.1-9.9,41.2-23.7,56.7-40.9,15.1-16.8,26-35.7,32.4-56.2,3.2-10.3,5.3-20.8,6.1-31.4.8-10.4.5-20.8-1-31.2-2.9-20.2-9.9-39.2-20.7-56.5-9.9-15.9-22.6-29.8-37.7-41.6h0s-152.5-117.2-152.5-117.2c-.1-.1-.2-.2-.4-.3-10-7.7-26.8-7.7-37.8,0-11.1,7.8-12.4,20.7-2.5,28.8h0s63.6,51.8,63.6,51.8l-193.9.2h-.3c-16,0-31.4,10.5-34.5,23.8-3.1,13.5,7.8,24.8,24.4,24.8h0c0,0,98.3-.1,98.3-.1L26.1,323.5c-.2.2-.5.3-.7.5-16.5,12.7-21.9,33.7-11.5,47.1,10.6,13.6,33.1,13.6,49.8,0l95.7-78.3s-1.4,10.6-1.3,16.9ZM404.1,345.1c-19.7,20.1-47.3,31.5-77.2,31.5-29.9,0-57.5-11.2-77.3-31.3-9.6-9.8-16.7-21-21.1-33-4.3-11.8-5.9-24.3-4.8-36.9,1-12.3,4.7-24.1,10.6-34.7,5.8-10.5,13.7-19.9,23.5-27.9,19.2-15.6,43.6-24.1,69.1-24.1,25.6,0,49.9,8.3,69.1,23.9,9.8,8,17.7,17.4,23.4,27.8,5.9,10.6,9.5,22.3,10.6,34.7,1.1,12.6-.6,25.1-4.9,36.9-4.4,12-11.4,23.3-21.1,33.1Z"/>
</svg>