<svg width="437" height="437" viewBox="0 0 437 437" fill="none" xmlns="http://www.w3.org/2000/svg">
<rect width="437" height="437" />
<circle cx="216" cy="218" r="193" fill="white"/>
<path fill-rule="evenodd" clip-rule="evenodd" d="M188.19 15.8224C165.891 18.8614 146.901 24.8661 124.796 35.8697C103.518 46.4617 90.0591 56.2485 71.9874 74.2706C54.3642 91.8466 44.5127 105.3 34.1965 125.877C-5.69964 205.461 9.05878 298.867 71.4447 361.618C88.8912 379.167 105.884 391.159 128.865 402.142C184.272 428.619 247.735 428.619 303.142 402.142C330.562 389.037 353.146 371.742 371.711 349.631C433.035 276.593 436.258 173.293 379.623 96.06C370.438 83.5345 347.361 61.002 334.157 51.667C292.079 21.9165 239.043 8.89224 188.19 15.8224ZM258.452 47.714C274.763 51.5615 285.252 55.4698 300.901 63.5331C333.696 80.429 359.602 106.88 376.56 140.785C380.346 148.354 383.77 155.967 384.172 157.701L384.9 160.855H357.629L352.917 151.393C326.455 98.2607 267.418 65.0239 208.947 70.3428C173.087 73.6043 143.582 87.0403 117.667 111.91C74.5997 153.24 60.8612 216.463 82.8589 272.095C98.8093 312.434 133.345 345.151 174.198 358.623C227.226 376.112 285.322 362.226 325.192 322.534C336.747 311.031 349.75 292.764 354.98 280.689L357.691 274.428L385.765 274.389L383.417 280.409C365.645 325.978 328.616 362.924 282.562 381.039C270.97 385.599 250.779 390.106 235.569 391.53C165.119 398.126 95.9572 359.131 64.5393 295.099C29.4629 223.611 46.1257 139.654 105.866 86.8729C131.546 64.1844 162.446 50.3815 200.515 44.5935C202.408 44.3057 213.508 44.2506 225.182 44.472C242.798 44.8045 248.454 45.3561 258.452 47.714ZM256.158 144.799H203.384V186.658C203.384 209.68 203.774 228.516 204.251 228.516C204.728 228.516 220.342 213.292 238.949 194.685L272.778 160.855H307.649L276.741 191.439C259.742 208.26 245.832 222.598 245.832 223.301C245.832 224.002 262.408 244.429 282.668 268.692L319.504 312.807L285.413 313.491L281.11 308.561C278.743 305.85 265.836 289.841 252.428 272.984C239.02 256.127 227.543 242.322 226.923 242.307C226.304 242.291 220.753 247.3 214.59 253.438L203.384 264.597V312.233H178.144V144.799H128.811V119.57H256.158V144.799Z" fill="black"/>
</svg>
