<?xml version="1.0" encoding="UTF-8"?>
<svg id="Layer_1" data-name="Layer 1" xmlns="http://www.w3.org/2000/svg" version="1.1" viewBox="0 0 172.2 151">
  <defs>
    <style>
      .cls-1 {
        fill: #0099B0;
        stroke-width: 0px;
      }
    </style>
  </defs>
  <path class="cls-1" d="M164.8,72.3l-20.1-3.7c-.5,0-1-.6-1.2-1l-6.2-14.4c-.2-.4-.2-1.1,0-1.6l11.7-17.1c.3-.4.2-1-.1-1.4l-14.6-14.6c-.4-.4-1-.4-1.4-.1l-17.4,11.9c-.4.3-1.1.3-1.6.1l-13.9-5.7c-.5-.2-.9-.7-1-1.2l-3.9-20.8c0-.5-.6-.9-1.1-.9h-20.7c-.5,0-1,.4-1.1.9l-3.9,20.8c0,.5-.6,1-1,1.2l-13.9,5.7c-.4.2-1.2.2-1.6-.1l-17.4-11.9c-.4-.3-1-.2-1.4.1l-14.6,14.6c-.4.4-.4,1-.1,1.4l11.7,17.1c.3.4.3,1.1,0,1.6l-6.2,14.4c-.2.5-.7.9-1.2,1l-20.1,3.7c-.5,0-.9.6-.9,1.1v20.7c0,.5.4,1,.9,1.1l19.6,3.6c.5,0,1,.6,1.2,1l6.1,15.3c.2.4.2,1.1-.1,1.6l-11.1,16.2c-.3.4-.2,1,.1,1.4l14.6,14.6c.4.4,1,.4,1.4.1l15.9-10.9c.4-.3,1.1-.3,1.5,0l7,3.8c.4.2,1,0,1.2-.4l14.5-35c.2-.5,0-1-.4-1.3l-1.8-1.1c-.3-.2-.8-.5-1.1-.9-6.3-4.1-10.5-11.2-10.5-19.3,0-12.6,10.2-22.9,22.9-22.9s22.9,10.2,22.9,22.9-4.2,15.2-10.5,19.3c-.3.3-.8.7-1.1.9l-1.8,1.1c-.4.3-.6.8-.4,1.3l14.5,35c.2.5.7.7,1.2.4l7-3.8c.4-.3,1.1-.2,1.5,0l15.9,10.9c.4.3,1,.2,1.4-.1l14.6-14.6c.4-.4.4-1,.1-1.4l-11.1-16.2c-.3-.4-.3-1.1-.1-1.6l6.1-15.3c.2-.5.7-.9,1.2-1l19.6-3.6c.5,0,.9-.6.9-1.1v-20.7c0-.5-.4-1-.9-1.1"/>
</svg>